# xmcd
#
# Track frame offsets:
#	225
#	16447
#	34146
#	51757
#	71931
#	86926
#	102123
#	103849
#	119321
#	135180
#	149923
#	168061
#	186004
#	199971
#	220271
#
# Disc length: 3174 seconds
#
# Revision: 2
# Processed by: cddbd v1.5.2PL0 Copyright (c) Steve Scherf et al.
# Submitted via: audiograbber 1.83.01
#
DISCID=e10c630f
DTITLE=Lasse Siggelin - Tid att leva
DYEAR=1998
DGENRE=Christian
TTITLE0=Tid att leva
TTITLE1=Ljusår från varann
TTITLE2=Längtar
TTITLE3=Vad äger jag (som jag inte fått) ?
TTITLE4=Där änglarna väntar
TTITLE5=Ett helt nytt år
TTITLE6=Alltför många gånger hör man alltför långa sånger
TTITLE7=Vi måste lära oss
TTITLE8=Öppna grindar
TTITLE9=Tomma tunnor
TTITLE10=Bara en mänska
TTITLE11=Gudomlig statistik
TTITLE12=Varje mänska är en berättelse
TTITLE13=Det doftar himmel
TTITLE14=Ännu en dag
EXTD=
EXTT0=
EXTT1=
EXTT2=
EXTT3=
EXTT4=
EXTT5=
EXTT6=
EXTT7=
EXTT8=
EXTT9=
EXTT10=
EXTT11=
EXTT12=
EXTT13=
EXTT14=
PLAYORDER=
